# xmcd
#
# Track frame offsets: 
#        150
#        13961
#        28485
#        45129
#        62364
#        80461
#        91204
#        103943
#        121379
#        136066
#        150401
#        169002
#        187686
#        205899
#        220438
#        235234
#        256279
#        268591
#
# Disc length: 3857 seconds
#
# Revision: 2
# Processed by: cddbd v1.5.2PL0 Copyright (c) Steve Scherf et al.
# Submitted via: ExactAudioCopyFreeDBPlugin 1.0
#
DISCID=ec0f0f12
DTITLE=Willie Nelson, Waylon Jennings, Johnny Cash, and Kris Kristoffe
DTITLE=rson - The Essential Highwaymen [CD1]
DYEAR=2010
DGENRE=Country
TTITLE0=Highwayman
TTITLE1=Silver Stallion
TTITLE2=The Greatest Cowboy of them all
TTITLE3=Take It to the Limit
TTITLE4=Help Me Make It Through The Night
TTITLE5=The Taker
TTITLE6=Just To Satisfy You
TTITLE7=Moment of Forever
TTITLE8=Eye of the Storm
TTITLE9=The Pilgrim: Chapter 33
TTITLE10=Sunday Morning Coming Down
TTITLE11=Casey's Last Ride
TTITLE12=Born and Raised in Black and White
TTITLE13=The Devil's Right Hand
TTITLE14=There Ain't No Good Chain Gang
TTITLE15=The Road Goes On Forever
TTITLE16=I Wish I Was Crazy Again
TTITLE17=Desperados Waiting For A Train
EXTD=
EXTT0=
EXTT1=
EXTT2=
EXTT3=
EXTT4=
EXTT5=
EXTT6=
EXTT7=
EXTT8=
EXTT9=
EXTT10=
EXTT11=
EXTT12=
EXTT13=
EXTT14=
EXTT15=
EXTT16=
EXTT17=
PLAYORDER=
